<svg width="139" height="40" viewBox="0 0 139 40" fill="none" xmlns="http://www.w3.org/2000/svg">
<path d="M137.692 35.3869C137.692 37.5185 135.929 39.2452 133.749 39.2452H4.71707C2.53789 39.2452 0.769043 37.5185 0.769043 35.3869V4.618C0.769043 2.48736 2.53789 0.754639 4.71707 0.754639H133.748C135.929 0.754639 137.691 2.48736 137.691 4.618L137.692 35.3869Z" fill="black"/>
<path d="M133.333 0.801252C135.708 0.801252 137.64 2.685 137.64 5V35C137.64 37.315 135.708 39.1988 133.333 39.1988H5.12821C2.75385 39.1988 0.821795 37.315 0.821795 35V5C0.821795 2.685 2.75385 0.801252 5.12821 0.801252H133.333ZM133.333 2.11397e-06H5.12821C2.30897 2.11397e-06 0 2.25125 0 5V35C0 37.7487 2.30897 40 5.12821 40H133.333C136.153 40 138.462 37.7487 138.462 35V5C138.462 2.25125 136.153 2.11397e-06 133.333 2.11397e-06Z" fill="#A6A6A6"/>
<path d="M30.9007 19.7842C30.871 16.5612 33.6074 14.9932 33.7325 14.9202C32.1828 12.7172 29.7807 12.4162 28.9366 12.3922C26.9192 12.1852 24.9623 13.5692 23.9346 13.5692C22.8864 13.5692 21.3038 12.4122 19.5982 12.4462C17.4033 12.4792 15.35 13.7182 14.2238 15.6422C11.8997 19.5652 13.633 25.3302 15.8597 28.5012C16.9735 30.0542 18.2751 31.7882 19.9787 31.7272C21.6453 31.6602 22.2679 30.6912 24.2792 30.6912C26.272 30.6912 26.8566 31.7272 28.5941 31.6882C30.3828 31.6602 31.5089 30.1282 32.5838 28.5612C33.871 26.7812 34.3879 25.0282 34.4084 24.9382C34.3664 24.9242 30.9346 23.6472 30.9007 19.7842Z" fill="white"/>
<path d="M27.6187 10.3062C28.5151 9.21316 29.1284 7.72616 28.9582 6.21716C27.6607 6.27316 26.0382 7.09216 25.1038 8.16116C24.2771 9.10316 23.5387 10.6472 23.7294 12.0992C25.1869 12.2052 26.6833 11.3822 27.6187 10.3062Z" fill="white"/>
<path d="M55.0206 31.5043H52.6914L51.4155 27.5953H46.9806L45.7652 31.5043H43.4976L47.8914 18.1963H50.6052L55.0206 31.5043ZM51.0309 25.9553L49.877 22.4803C49.755 22.1253 49.5263 21.2893 49.1888 19.9733H49.1478C49.0135 20.5393 48.797 21.3753 48.4996 22.4803L47.3663 25.9553H51.0309Z" fill="white"/>
<path d="M66.3202 26.5889C66.3202 28.2209 65.8679 29.5109 64.9633 30.4579C64.1531 31.3009 63.1469 31.7219 61.9459 31.7219C60.6495 31.7219 59.7182 31.2679 59.151 30.3599H59.11V35.4149H56.9233V25.0679C56.9233 24.0419 56.8956 22.9889 56.8423 21.9089H58.7654L58.8874 23.4299H58.9284C59.6577 22.2839 60.7643 21.7119 62.2495 21.7119C63.4105 21.7119 64.3797 22.1589 65.1551 23.0539C65.9325 23.9499 66.3202 25.1279 66.3202 26.5889ZM64.0925 26.6669C64.0925 25.7329 63.8772 24.9629 63.4443 24.3569C62.9715 23.7249 62.3366 23.4089 61.5407 23.4089C61.0013 23.4089 60.511 23.5849 60.0731 23.9319C59.6341 24.2819 59.3469 24.7389 59.2125 25.3049C59.1448 25.5689 59.111 25.7849 59.111 25.9549V27.5549C59.111 28.2529 59.3305 28.8419 59.7695 29.3229C60.2084 29.8039 60.7787 30.0439 61.4802 30.0439C62.3038 30.0439 62.9448 29.7339 63.4033 29.1159C63.8628 28.4969 64.0925 27.6809 64.0925 26.6669Z" fill="white"/>
<path d="M77.64 26.5889C77.64 28.2209 77.1877 29.5109 76.2821 30.4579C75.4728 31.3009 74.4667 31.7219 73.2656 31.7219C71.9692 31.7219 71.038 31.2679 70.4718 30.3599H70.4308V35.4149H68.2441V25.0679C68.2441 24.0419 68.2164 22.9889 68.1631 21.9089H70.0862L70.2082 23.4299H70.2492C70.9774 22.2839 72.0841 21.7119 73.5703 21.7119C74.7303 21.7119 75.6995 22.1589 76.4769 23.0539C77.2513 23.9499 77.64 25.1279 77.64 26.5889ZM75.4123 26.6669C75.4123 25.7329 75.1959 24.9629 74.7631 24.3569C74.2903 23.7249 73.6574 23.4089 72.8605 23.4089C72.32 23.4089 71.8308 23.5849 71.3918 23.9319C70.9528 24.2819 70.6667 24.7389 70.5323 25.3049C70.4656 25.5689 70.4308 25.7849 70.4308 25.9549V27.5549C70.4308 28.2529 70.6503 28.8419 71.0872 29.3229C71.5262 29.8029 72.0964 30.0439 72.8 30.0439C73.6236 30.0439 74.2646 29.7339 74.7231 29.1159C75.1826 28.4969 75.4123 27.6809 75.4123 26.6669Z" fill="white"/>
<path d="M90.2968 27.772C90.2968 28.904 89.8937 29.825 89.0845 30.536C88.1953 31.313 86.9573 31.701 85.3665 31.701C83.8978 31.701 82.7204 31.425 81.8291 30.872L82.3358 29.095C83.2958 29.661 84.3491 29.945 85.4968 29.945C86.3204 29.945 86.9614 29.763 87.4219 29.401C87.8804 29.039 88.1091 28.553 88.1091 27.947C88.1091 27.407 87.9204 26.952 87.5419 26.583C87.1655 26.214 86.5368 25.871 85.6588 25.554C83.2691 24.685 82.0753 23.412 82.0753 21.738C82.0753 20.644 82.4937 19.747 83.3317 19.049C84.1665 18.35 85.2804 18.001 86.6732 18.001C87.9153 18.001 88.9471 18.212 89.7706 18.633L89.224 20.371C88.4547 19.963 87.585 19.759 86.6117 19.759C85.8424 19.759 85.2414 19.944 84.8106 20.312C84.4465 20.641 84.264 21.042 84.264 21.517C84.264 22.043 84.4722 22.478 84.8906 22.82C85.2547 23.136 85.9163 23.478 86.8763 23.847C88.0506 24.308 88.9132 24.847 89.4681 25.465C90.0209 26.081 90.2968 26.852 90.2968 27.772Z" fill="white"/>
<path d="M97.5261 23.5083H95.1158V28.1673C95.1158 29.3523 95.5404 29.9443 96.3917 29.9443C96.7825 29.9443 97.1066 29.9113 97.363 29.8453L97.4235 31.4643C96.9927 31.6213 96.4256 31.7003 95.723 31.7003C94.8594 31.7003 94.1845 31.4433 93.6974 30.9303C93.2122 30.4163 92.9681 29.5543 92.9681 28.3433V23.5063H91.5322V21.9063H92.9681V20.1493L95.1158 19.5173V21.9063H97.5261V23.5083Z" fill="white"/>
<path d="M108.401 26.6269C108.401 28.1019 107.968 29.3129 107.105 30.2599C106.199 31.2349 104.997 31.7209 103.499 31.7209C102.055 31.7209 100.905 31.2539 100.047 30.3199C99.1899 29.3859 98.7612 28.2069 98.7612 26.7859C98.7612 25.2989 99.2023 24.0809 100.087 23.1339C100.97 22.1859 102.162 21.7119 103.661 21.7119C105.105 21.7119 106.267 22.1789 107.144 23.1139C107.983 24.0209 108.401 25.1919 108.401 26.6269ZM106.133 26.6959C106.133 25.8109 105.939 25.0519 105.546 24.4189C105.087 23.6529 104.432 23.2709 103.583 23.2709C102.704 23.2709 102.036 23.6539 101.578 24.4189C101.185 25.0529 100.991 25.8239 100.991 26.7359C100.991 27.6209 101.185 28.3799 101.578 29.0119C102.05 29.7779 102.711 30.1599 103.563 30.1599C104.398 30.1599 105.054 29.7699 105.526 28.9919C105.929 28.3469 106.133 27.5799 106.133 26.6959Z" fill="white"/>
<path d="M115.509 23.7839C115.292 23.7449 115.062 23.7249 114.82 23.7249C114.05 23.7249 113.455 24.0079 113.037 24.5749C112.673 25.0749 112.49 25.7069 112.49 26.4699V31.5049H110.305L110.325 24.9309C110.325 23.8249 110.298 22.8179 110.243 21.9099H112.148L112.228 23.7459H112.288C112.519 23.1149 112.883 22.6069 113.382 22.2259C113.869 21.8829 114.395 21.7119 114.962 21.7119C115.164 21.7119 115.347 21.7259 115.509 21.7509V23.7839Z" fill="white"/>
<path d="M125.289 26.2522C125.289 26.6342 125.263 26.9562 125.209 27.2192H118.649C118.674 28.1672 118.991 28.8922 119.6 29.3922C120.153 29.8392 120.868 30.0632 121.746 30.0632C122.717 30.0632 123.604 29.9122 124.4 29.6092L124.743 31.0892C123.812 31.4852 122.712 31.6822 121.444 31.6822C119.917 31.6822 118.719 31.2442 117.848 30.3692C116.978 29.4942 116.542 28.3192 116.542 26.8452C116.542 25.3982 116.947 24.1932 117.758 23.2322C118.608 22.2062 119.755 21.6932 121.199 21.6932C122.618 21.6932 123.692 22.2062 124.421 23.2322C124.998 24.0472 125.289 25.0552 125.289 26.2522ZM123.204 25.6992C123.218 25.0672 123.075 24.5212 122.779 24.0602C122.4 23.4672 121.819 23.1712 121.036 23.1712C120.321 23.1712 119.74 23.4602 119.296 24.0402C118.932 24.5012 118.715 25.0542 118.649 25.6982H123.204V25.6992Z" fill="white"/>
<path d="M50.3077 10.0093C50.3077 11.1863 49.9456 12.0723 49.2226 12.6673C48.5528 13.2163 47.601 13.4913 46.3682 13.4913C45.7569 13.4913 45.2338 13.4653 44.7959 13.4133V6.98231C45.3672 6.89231 45.9826 6.84631 46.6472 6.84631C47.8215 6.84631 48.7067 7.09531 49.3036 7.59331C49.9723 8.15631 50.3077 8.96131 50.3077 10.0093ZM49.1744 10.0383C49.1744 9.27531 48.9672 8.69031 48.5528 8.28231C48.1385 7.87531 47.5333 7.67131 46.7364 7.67131C46.398 7.67131 46.1097 7.69331 45.8708 7.73931V12.6283C46.0031 12.6483 46.2451 12.6573 46.5969 12.6573C47.4195 12.6573 48.0544 12.4343 48.5015 11.9883C48.9487 11.5423 49.1744 10.8923 49.1744 10.0383Z" fill="white"/>
<path d="M56.3164 11.0372C56.3164 11.7622 56.1041 12.3562 55.6795 12.8222C55.2344 13.3012 54.6446 13.5402 53.9082 13.5402C53.1985 13.5402 52.6334 13.3112 52.2118 12.8512C51.7913 12.3922 51.5811 11.8132 51.5811 11.1152C51.5811 10.3852 51.7975 9.78623 52.2323 9.32123C52.6672 8.85623 53.2518 8.62323 53.9882 8.62323C54.698 8.62323 55.2682 8.85223 55.7 9.31123C56.1103 9.75723 56.3164 10.3332 56.3164 11.0372ZM55.2016 11.0712C55.2016 10.6362 55.1052 10.2632 54.9134 9.95223C54.6877 9.57623 54.3667 9.38823 53.9493 9.38823C53.5175 9.38823 53.1893 9.57623 52.9636 9.95223C52.7708 10.2632 52.6754 10.6422 52.6754 11.0902C52.6754 11.5252 52.7718 11.8982 52.9636 12.2092C53.1964 12.5852 53.5205 12.7732 53.939 12.7732C54.3493 12.7732 54.6713 12.5822 54.9031 12.1992C55.1021 11.8822 55.2016 11.5062 55.2016 11.0712Z" fill="white"/>
<path d="M64.3743 8.71912L62.8614 13.4331H61.8768L61.2502 11.3861C61.0912 10.8751 60.962 10.3671 60.8614 9.86312H60.842C60.7486 10.3811 60.6194 10.8881 60.4532 11.3861L59.7876 13.4331H58.7917L57.3691 8.71912H58.4738L59.0204 10.9601C59.1527 11.4901 59.2614 11.9951 59.3486 12.4731H59.3681C59.4481 12.0791 59.5804 11.5771 59.7671 10.9701L60.4532 8.72012H61.3291L61.9866 10.9221C62.1455 11.4591 62.2748 11.9761 62.3743 12.4741H62.404C62.4768 11.9891 62.5866 11.4721 62.7322 10.9221L63.3189 8.72012H64.3743V8.71912Z" fill="white"/>
<path d="M69.9464 13.4335H68.8716V10.7335C68.8716 9.90154 68.5475 9.48554 67.8972 9.48554C67.5782 9.48554 67.3208 9.59954 67.1208 9.82854C66.9229 10.0575 66.8223 10.3275 66.8223 10.6365V13.4325H65.7475V10.0665C65.7475 9.65254 65.7341 9.20354 65.7085 8.71754H66.6531L66.7034 9.45455H66.7331C66.8582 9.22555 67.0449 9.03654 67.29 8.88554C67.5813 8.70954 67.9075 8.62054 68.2644 8.62054C68.7157 8.62054 69.091 8.76254 69.3895 9.04754C69.7608 9.39654 69.9464 9.91755 69.9464 10.6095V13.4335Z" fill="white"/>
<path d="M72.9108 13.433H71.8369V6.55603H72.9108V13.433Z" fill="white"/>
<path d="M79.2388 11.0372C79.2388 11.7622 79.0265 12.3562 78.6019 12.8222C78.1568 13.3012 77.566 13.5402 76.8306 13.5402C76.1198 13.5402 75.5547 13.3112 75.1342 12.8512C74.7137 12.3922 74.5034 11.8132 74.5034 11.1152C74.5034 10.3852 74.7198 9.78623 75.1547 9.32123C75.5896 8.85623 76.1742 8.62323 76.9096 8.62323C77.6203 8.62323 78.1896 8.85223 78.6224 9.31123C79.0326 9.75723 79.2388 10.3332 79.2388 11.0372ZM78.1229 11.0712C78.1229 10.6362 78.0265 10.2632 77.8347 9.95223C77.6101 9.57623 77.288 9.38823 76.8716 9.38823C76.4388 9.38823 76.1106 9.57623 75.886 9.95223C75.6932 10.2632 75.5978 10.6422 75.5978 11.0902C75.5978 11.5252 75.6942 11.8982 75.886 12.2092C76.1188 12.5852 76.4429 12.7732 76.8614 12.7732C77.2716 12.7732 77.5926 12.5822 77.8244 12.1992C78.0244 11.8822 78.1229 11.5062 78.1229 11.0712Z" fill="white"/>
<path d="M84.4409 13.4332H83.4758L83.3958 12.8902H83.366C83.0358 13.3232 82.565 13.5402 81.9537 13.5402C81.4973 13.5402 81.1281 13.3972 80.8501 13.1132C80.5978 12.8552 80.4717 12.5342 80.4717 12.1532C80.4717 11.5772 80.7178 11.1382 81.2132 10.8342C81.7076 10.5302 82.403 10.3812 83.2983 10.3882V10.3002C83.2983 9.67923 82.964 9.36923 82.2942 9.36923C81.8173 9.36923 81.3968 9.48623 81.0337 9.71823L80.8153 9.03023C81.2645 8.75923 81.8194 8.62323 82.4737 8.62323C83.7373 8.62323 84.3712 9.27323 84.3712 10.5732V12.3092C84.3712 12.7802 84.3948 13.1552 84.4409 13.4332ZM83.325 11.8132V11.0862C82.1394 11.0662 81.5466 11.3832 81.5466 12.0362C81.5466 12.2822 81.6142 12.4662 81.7527 12.5892C81.8912 12.7122 82.0676 12.7732 82.2778 12.7732C82.5137 12.7732 82.7342 12.7002 82.9353 12.5552C83.1373 12.4092 83.2614 12.2242 83.3076 11.9972C83.3189 11.9462 83.325 11.8842 83.325 11.8132Z" fill="white"/>
<path d="M90.5485 13.433H89.5946L89.5444 12.676H89.5146C89.21 13.252 88.691 13.54 87.9618 13.54C87.3793 13.54 86.8941 13.317 86.5095 12.871C86.1249 12.425 85.9331 11.846 85.9331 11.135C85.9331 10.372 86.1413 9.75403 86.5598 9.28203C86.9649 8.84203 87.4613 8.62203 88.0521 8.62203C88.7013 8.62203 89.1557 8.83503 89.4141 9.26203H89.4346V6.55603H90.5105V12.163C90.5105 12.622 90.5228 13.045 90.5485 13.433ZM89.4346 11.445V10.659C89.4346 10.523 89.4244 10.413 89.4049 10.329C89.3444 10.077 89.2141 9.86503 89.0162 9.69403C88.8162 9.52303 88.5751 9.43703 88.2972 9.43703C87.8962 9.43703 87.5823 9.59203 87.3516 9.90303C87.1228 10.214 87.0069 10.611 87.0069 11.096C87.0069 11.562 87.1167 11.94 87.3372 12.231C87.57 12.541 87.8839 12.696 88.2767 12.696C88.6295 12.696 88.9116 12.567 89.1259 12.308C89.3331 12.069 89.4346 11.781 89.4346 11.445Z" fill="white"/>
<path d="M99.7412 11.0372C99.7412 11.7622 99.5289 12.3562 99.1043 12.8222C98.6592 13.3012 98.0705 13.5402 97.333 13.5402C96.6243 13.5402 96.0592 13.3112 95.6366 12.8512C95.2161 12.3922 95.0059 11.8132 95.0059 11.1152C95.0059 10.3852 95.2223 9.78623 95.6571 9.32123C96.092 8.85623 96.6766 8.62323 97.4141 8.62323C98.1228 8.62323 98.6941 8.85223 99.1248 9.31123C99.5351 9.75723 99.7412 10.3332 99.7412 11.0372ZM98.6274 11.0712C98.6274 10.6362 98.531 10.2632 98.3392 9.95223C98.1125 9.57623 97.7925 9.38823 97.3741 9.38823C96.9433 9.38823 96.6151 9.57623 96.3884 9.95223C96.1956 10.2632 96.1002 10.6422 96.1002 11.0902C96.1002 11.5252 96.1966 11.8982 96.3884 12.2092C96.6212 12.5852 96.9453 12.7732 97.3638 12.7732C97.7741 12.7732 98.0971 12.5822 98.3289 12.1992C98.5269 11.8822 98.6274 11.5062 98.6274 11.0712Z" fill="white"/>
<path d="M105.521 13.4335H104.447V10.7335C104.447 9.90154 104.123 9.48554 103.471 9.48554C103.152 9.48554 102.895 9.59954 102.696 9.82854C102.497 10.0575 102.398 10.3275 102.398 10.6365V13.4325H101.322V10.0665C101.322 9.65254 101.309 9.20354 101.284 8.71754H102.227L102.278 9.45455H102.307C102.433 9.22555 102.62 9.03654 102.864 8.88554C103.157 8.70954 103.482 8.62054 103.84 8.62054C104.29 8.62054 104.665 8.76254 104.964 9.04754C105.336 9.39654 105.521 9.91755 105.521 10.6095V13.4335Z" fill="white"/>
<path d="M112.755 9.50447H111.571V11.7945C111.571 12.3765 111.781 12.6675 112.198 12.6675C112.391 12.6675 112.551 12.6515 112.677 12.6185L112.704 13.4135C112.492 13.4915 112.213 13.5305 111.87 13.5305C111.445 13.5305 111.115 13.4045 110.876 13.1525C110.636 12.9005 110.517 12.4765 110.517 11.8815V9.50447H109.81V8.71947H110.517V7.85547L111.57 7.54547V8.71847H112.754V9.50447H112.755Z" fill="white"/>
<path d="M118.445 13.433H117.369V10.753C117.369 9.90803 117.045 9.48503 116.396 9.48503C115.897 9.48503 115.557 9.73003 115.37 10.22C115.338 10.323 115.32 10.449 115.32 10.597V13.432H114.246V6.55603H115.32V9.39703H115.34C115.679 8.88003 116.164 8.62203 116.793 8.62203C117.238 8.62203 117.606 8.76403 117.898 9.04903C118.263 9.40403 118.445 9.93203 118.445 10.63V13.433Z" fill="white"/>
<path d="M124.315 10.8534C124.315 11.0414 124.3 11.1994 124.275 11.3284H121.051C121.065 11.7944 121.219 12.1494 121.518 12.3954C121.79 12.6154 122.142 12.7254 122.573 12.7254C123.05 12.7254 123.485 12.6514 123.877 12.5024L124.045 13.2304C123.586 13.4244 123.047 13.5214 122.422 13.5214C121.674 13.5214 121.084 13.3064 120.657 12.8764C120.228 12.4464 120.016 11.8694 120.016 11.1454C120.016 10.4344 120.214 9.84238 120.613 9.37038C121.029 8.86638 121.593 8.61438 122.303 8.61438C122.999 8.61438 123.527 8.86638 123.884 9.37038C124.172 9.77038 124.315 10.2654 124.315 10.8534ZM123.289 10.5824C123.297 10.2714 123.226 10.0034 123.081 9.77738C122.894 9.48638 122.61 9.34038 122.225 9.34038C121.875 9.34038 121.588 9.48238 121.37 9.76738C121.191 9.99438 121.086 10.2654 121.051 10.5824H123.289Z" fill="white"/>
</svg>
