<svg width="32" height="32" viewBox="0 0 32 32" fill="none" xmlns="http://www.w3.org/2000/svg">
<path d="M28 10.6667V27.9908C28.0012 28.1658 27.968 28.3395 27.9021 28.5017C27.8362 28.6639 27.739 28.8116 27.6161 28.9363C27.4931 29.061 27.3468 29.1602 27.1855 29.2284C27.0242 29.2965 26.8511 29.3322 26.676 29.3334H5.324C4.97308 29.3334 4.63652 29.1941 4.38826 28.9461C4.14 28.6981 4.00035 28.3617 4 28.0107V3.98942C4 3.27341 4.59867 2.66675 5.336 2.66675H19.996L28 10.6667ZM25.3333 12.0001H18.6667V5.33342H6.66667V26.6668H25.3333V12.0001ZM10.6667 9.33342H14.6667V12.0001H10.6667V9.33342ZM10.6667 14.6667H21.3333V17.3334H10.6667V14.6667ZM10.6667 20.0001H21.3333V22.6667H10.6667V20.0001Z" fill="#61BD52"/>
</svg>
