<svg width="32" height="32" viewBox="0 0 32 32" fill="none" xmlns="http://www.w3.org/2000/svg">
<g id="error-warning">
<path id="shape" fill-rule="evenodd" clip-rule="evenodd" d="M2.66602 15.9993C2.66602 23.3633 8.63535 29.3327 15.9993 29.3327C23.3633 29.3327 29.3327 23.3633 29.3327 15.9993C29.3327 8.63535 23.3633 2.66602 15.9993 2.66602C8.63535 2.66602 2.66602 8.63535 2.66602 15.9993ZM26.666 15.9993C26.666 21.8904 21.8904 26.666 15.9993 26.666C10.1083 26.666 5.33268 21.8904 5.33268 15.9993C5.33268 10.1083 10.1083 5.33268 15.9993 5.33268C21.8904 5.33268 26.666 10.1083 26.666 15.9993ZM17.3327 19.9993V22.666H14.666V19.9993H17.3327ZM17.3327 17.3327V9.33268H14.666V17.3327H17.3327Z" fill="#2C3136"/>
</g>
</svg>
