<svg width="16" height="16" viewBox="0 0 16 16" fill="none" xmlns="http://www.w3.org/2000/svg">
<path fill-rule="evenodd" clip-rule="evenodd" d="M7.97553 0.191895C3.57186 0.191895 0 3.76376 0 8.16743C0 11.6904 2.29969 14.6751 5.43119 15.7515C5.82263 15.8005 5.96942 15.5558 5.96942 15.3601C5.96942 15.1644 5.96942 14.6751 5.96942 13.9901C3.76758 14.4794 3.27829 12.9136 3.27829 12.9136C2.93578 11.9839 2.39755 11.7393 2.39755 11.7393C1.66361 11.25 2.44648 11.25 2.44648 11.25C3.22936 11.2989 3.66972 12.0818 3.66972 12.0818C4.40367 13.305 5.52905 12.9625 5.96942 12.7668C6.01835 12.2286 6.263 11.8861 6.45872 11.6904C4.69725 11.4946 2.83792 10.8096 2.83792 7.72706C2.83792 6.84633 3.1315 6.16131 3.66972 5.57416C3.62079 5.42737 3.32722 4.59556 3.76758 3.51911C3.76758 3.51911 4.4526 3.32339 5.96942 4.35092C6.6055 4.1552 7.29052 4.10627 7.97553 4.10627C8.66055 4.10627 9.34557 4.20413 9.98165 4.35092C11.4985 3.32339 12.1835 3.51911 12.1835 3.51911C12.6239 4.59556 12.3303 5.42737 12.2813 5.62309C12.7706 6.16131 13.1131 6.89526 13.1131 7.77599C13.1131 10.8586 11.2538 11.4946 9.49235 11.6904C9.78593 11.935 10.0306 12.4243 10.0306 13.1583C10.0306 14.2347 10.0306 15.0665 10.0306 15.3601C10.0306 15.5558 10.1774 15.8005 10.5688 15.7515C13.7492 14.6751 16 11.6904 16 8.16743C15.9511 3.76376 12.3792 0.191895 7.97553 0.191895Z" fill="white"/>
</svg>
