<svg width="139" height="40" viewBox="0 0 139 40" fill="none" xmlns="http://www.w3.org/2000/svg">
<path d="M133.15 40H5.12116C2.3058 40 0 37.7488 0 35V5.00001C0 2.25127 2.3058 1.62865e-05 5.12116 1.62865e-05H133.15C135.965 1.62865e-05 138.271 2.25127 138.271 5.00001V35C138.271 37.7488 135.965 40 133.15 40Z" fill="black"/>
<path d="M133.15 0.801263C135.521 0.801263 137.451 2.68502 137.451 5.00001V35C137.451 37.315 135.521 39.1988 133.15 39.1988H5.12116C2.75006 39.1988 0.820665 37.315 0.820665 35V5.00001C0.820665 2.68502 2.75006 0.801263 5.12116 0.801263H133.15ZM133.15 1.62865e-05H5.12116C2.3058 1.62865e-05 0 2.25127 0 5.00001V35C0 37.7488 2.3058 40 5.12116 40H133.15C135.965 40 138.271 37.7488 138.271 35V5.00001C138.271 2.25127 135.965 1.62865e-05 133.15 1.62865e-05Z" fill="#A6A6A6"/>
<path d="M48.5665 10.2436C48.5665 11.0786 48.3104 11.7473 47.806 12.2461C47.226 12.8373 46.4706 13.1348 45.545 13.1348C44.6603 13.1348 43.9049 12.8323 43.2853 12.2361C42.6643 11.6311 42.3545 10.8886 42.3545 9.99981C42.3545 9.11106 42.6643 8.36856 43.2853 7.76856C43.9049 7.16731 44.6603 6.86481 45.545 6.86481C45.9854 6.86481 46.4053 6.95356 46.8061 7.11856C47.2055 7.28481 47.5307 7.50981 47.7663 7.78731L47.2311 8.31481C46.8201 7.84106 46.2607 7.60731 45.545 7.60731C44.8997 7.60731 44.3402 7.82731 43.8652 8.27106C43.3954 8.71606 43.1598 9.29231 43.1598 9.99981C43.1598 10.7073 43.3954 11.2886 43.8652 11.7336C44.3402 12.1723 44.8997 12.3973 45.545 12.3973C46.2299 12.3973 46.8061 12.1723 47.2606 11.7286C47.5601 11.4348 47.7304 11.0298 47.7752 10.5123H45.545V9.78981H48.5204C48.5562 9.94606 48.5665 10.0973 48.5665 10.2436Z" fill="white" stroke="white" stroke-width="0.16" stroke-miterlimit="10"/>
<path d="M53.2868 7.73863H50.4919V9.63863H53.0115V10.3611H50.4919V12.2611H53.2868V12.9974H49.7007V7.00238H53.2868V7.73863Z" fill="white" stroke="white" stroke-width="0.16" stroke-miterlimit="10"/>
<path d="M56.6178 12.9974H55.8266V7.73863H54.1123V7.00238H58.3334V7.73863H56.6178V12.9974Z" fill="white" stroke="white" stroke-width="0.16" stroke-miterlimit="10"/>
<path d="M61.3887 12.9974V7.00238H62.1786V12.9974H61.3887Z" fill="white" stroke="white" stroke-width="0.16" stroke-miterlimit="10"/>
<path d="M65.6803 12.9974H64.8955V7.73863H63.1748V7.00238H67.401V7.73863H65.6803V12.9974Z" fill="white" stroke="white" stroke-width="0.16" stroke-miterlimit="10"/>
<path d="M75.3923 12.2261C74.7867 12.8323 74.0364 13.1348 73.1415 13.1348C72.2415 13.1348 71.4912 12.8323 70.8856 12.2261C70.2813 11.6211 69.9805 10.8786 69.9805 9.99981C69.9805 9.12106 70.2813 8.37856 70.8856 7.77356C71.4912 7.16731 72.2415 6.86481 73.1415 6.86481C74.0313 6.86481 74.7816 7.16731 75.3871 7.77856C75.9966 8.38856 76.2974 9.12606 76.2974 9.99981C76.2974 10.8786 75.9966 11.6211 75.3923 12.2261ZM71.4707 11.7236C71.9265 12.1723 72.4809 12.3973 73.1415 12.3973C73.797 12.3973 74.3565 12.1723 74.8072 11.7236C75.2617 11.2748 75.4921 10.6986 75.4921 9.99981C75.4921 9.30106 75.2617 8.72481 74.8072 8.27606C74.3565 7.82731 73.797 7.60231 73.1415 7.60231C72.4809 7.60231 71.9265 7.82731 71.4707 8.27606C71.0162 8.72481 70.7858 9.30106 70.7858 9.99981C70.7858 10.6986 71.0162 11.2748 71.4707 11.7236Z" fill="white" stroke="white" stroke-width="0.16" stroke-miterlimit="10"/>
<path d="M77.4077 12.9974V7.00238H78.3679L81.3536 11.6649H81.3881L81.3536 10.5124V7.00238H82.1435V12.9974H81.319L78.1925 8.10488H78.158L78.1925 9.26238V12.9974H77.4077Z" fill="white" stroke="white" stroke-width="0.16" stroke-miterlimit="10"/>
<path d="M69.7862 21.7526C67.3805 21.7526 65.4153 23.5401 65.4153 26.0063C65.4153 28.4526 67.3805 30.2588 69.7862 30.2588C72.197 30.2588 74.1622 28.4526 74.1622 26.0063C74.1622 23.5401 72.197 21.7526 69.7862 21.7526ZM69.7862 28.5838C68.4662 28.5838 67.3306 27.5201 67.3306 26.0063C67.3306 24.4726 68.4662 23.4276 69.7862 23.4276C71.1062 23.4276 72.2469 24.4726 72.2469 26.0063C72.2469 27.5201 71.1062 28.5838 69.7862 28.5838ZM60.2493 21.7526C57.8385 21.7526 55.8784 23.5401 55.8784 26.0063C55.8784 28.4526 57.8385 30.2588 60.2493 30.2588C62.6588 30.2588 64.6202 28.4526 64.6202 26.0063C64.6202 23.5401 62.6588 21.7526 60.2493 21.7526ZM60.2493 28.5838C58.9281 28.5838 57.7886 27.5201 57.7886 26.0063C57.7886 24.4726 58.9281 23.4276 60.2493 23.4276C61.5693 23.4276 62.7049 24.4726 62.7049 26.0063C62.7049 27.5201 61.5693 28.5838 60.2493 28.5838ZM48.9009 23.0563V24.8638H53.3217C53.1924 25.8738 52.8467 26.6163 52.3167 27.1338C51.6714 27.7588 50.6664 28.4526 48.9009 28.4526C46.1802 28.4526 44.0498 26.3088 44.0498 23.6526C44.0498 20.9963 46.1802 18.8526 48.9009 18.8526C50.3719 18.8526 51.4422 19.4138 52.2322 20.1413L53.5368 18.8676C52.4319 17.8376 50.9621 17.0463 48.9009 17.0463C45.1701 17.0463 42.0347 20.0101 42.0347 23.6526C42.0347 27.2951 45.1701 30.2588 48.9009 30.2588C50.9173 30.2588 52.4319 29.6138 53.6226 28.4038C54.8427 27.2126 55.2229 25.5376 55.2229 24.1851C55.2229 23.7651 55.1871 23.3788 55.1231 23.0563H48.9009ZM95.3062 24.4576C94.9464 23.5063 93.8364 21.7526 91.5754 21.7526C89.3349 21.7526 87.4695 23.4763 87.4695 26.0063C87.4695 28.3888 89.3157 30.2588 91.7905 30.2588C93.7916 30.2588 94.9464 29.0676 95.4214 28.3738L93.9363 27.4076C93.4408 28.1151 92.7661 28.5838 91.7905 28.5838C90.8213 28.5838 90.1261 28.1501 89.6806 27.2951L95.5072 24.9413L95.3062 24.4576ZM89.3656 25.8738C89.3157 24.2338 90.6703 23.3938 91.6407 23.3938C92.4012 23.3938 93.0465 23.7651 93.2616 24.2963L89.3656 25.8738ZM84.6299 30.0001H86.5452V17.5001H84.6299V30.0001ZM81.4932 22.7001H81.4291C80.999 22.2026 80.1783 21.7526 79.1387 21.7526C76.9571 21.7526 74.9624 23.6226 74.9624 26.0201C74.9624 28.4038 76.9571 30.2588 79.1387 30.2588C80.1783 30.2588 80.999 29.8051 81.4291 29.2926H81.4932V29.9026C81.4932 31.5288 80.6033 32.4026 79.1681 32.4026C77.998 32.4026 77.272 31.5776 76.9725 30.8838L75.3068 31.5626C75.7869 32.6901 77.0582 34.0776 79.1681 34.0776C81.4138 34.0776 83.3086 32.7876 83.3086 29.6488V22.0113H81.4932V22.7001ZM79.3026 28.5838C77.9826 28.5838 76.8777 27.5051 76.8777 26.0201C76.8777 24.5213 77.9826 23.4276 79.3026 23.4276C80.6034 23.4276 81.6289 24.5213 81.6289 26.0201C81.6289 27.5051 80.6034 28.5838 79.3026 28.5838ZM104.273 17.5001H99.6924V30.0001H101.603V25.2638H104.273C106.395 25.2638 108.475 23.7651 108.475 21.3813C108.475 18.9988 106.39 17.5001 104.273 17.5001ZM104.323 23.5251H101.603V19.2388H104.323C105.749 19.2388 106.564 20.3951 106.564 21.3813C106.564 22.3488 105.749 23.5251 104.323 23.5251ZM116.131 21.7288C114.751 21.7288 113.316 22.3238 112.726 23.6426L114.421 24.3363C114.786 23.6426 115.457 23.4176 116.166 23.4176C117.157 23.4176 118.162 23.9988 118.177 25.0251V25.1563C117.832 24.9613 117.092 24.6726 116.181 24.6726C114.356 24.6726 112.495 25.6538 112.495 27.4851C112.495 29.1601 113.991 30.2388 115.672 30.2388C116.957 30.2388 117.666 29.6726 118.112 29.0138H118.177V29.9801H120.022V25.1851C120.022 22.9688 118.327 21.7288 116.131 21.7288ZM115.901 28.5788C115.276 28.5788 114.406 28.2763 114.406 27.5201C114.406 26.5526 115.491 26.1813 116.431 26.1813C117.272 26.1813 117.666 26.3626 118.177 26.6013C118.027 27.7588 117.007 28.5788 115.901 28.5788ZM126.744 22.0026L124.548 27.4213H124.483L122.213 22.0026H120.153L123.563 29.5751L121.617 33.7888H123.613L128.869 22.0026H126.744ZM109.525 30.0001H111.44V17.5001H109.525V30.0001Z" fill="white"/>
<path d="M10.6879 7.53875C10.387 7.84626 10.2129 8.325 10.2129 8.945V31.06C10.2129 31.68 10.387 32.1588 10.6879 32.4663L10.7621 32.5338L23.4549 20.1463V19.8538L10.7621 7.46625L10.6879 7.53875Z" fill="url(#paint0_linear_679_52683)"/>
<path d="M27.6813 24.2773L23.4551 20.1461V19.8536L27.6864 15.7223L27.7812 15.7761L32.7922 18.5598C34.2223 19.3498 34.2223 20.6498 32.7922 21.4448L27.7812 24.2236L27.6813 24.2773Z" fill="url(#paint1_linear_679_52683)"/>
<path d="M27.7811 24.2238L23.455 20.0001L10.688 32.4663C11.163 32.9538 11.9375 33.0126 12.8184 32.5251L27.7811 24.2238Z" fill="url(#paint2_linear_679_52683)"/>
<path d="M27.7811 15.7763L12.8184 7.475C11.9375 6.9925 11.163 7.05125 10.688 7.53875L23.455 20L27.7811 15.7763Z" fill="url(#paint3_linear_679_52683)"/>
<defs>
<linearGradient id="paint0_linear_679_52683" x1="22.328" y1="31.2903" x2="5.55036" y2="14.1062" gradientUnits="userSpaceOnUse">
<stop stop-color="#00A0FF"/>
<stop offset="0.0066" stop-color="#00A1FF"/>
<stop offset="0.2601" stop-color="#00BEFF"/>
<stop offset="0.5122" stop-color="#00D2FF"/>
<stop offset="0.7604" stop-color="#00DFFF"/>
<stop offset="1" stop-color="#00E3FF"/>
</linearGradient>
<linearGradient id="paint1_linear_679_52683" x1="34.6544" y1="19.9984" x2="9.87122" y2="19.9984" gradientUnits="userSpaceOnUse">
<stop stop-color="#FFE000"/>
<stop offset="0.4087" stop-color="#FFBD00"/>
<stop offset="0.7754" stop-color="#FFA500"/>
<stop offset="1" stop-color="#FF9C00"/>
</linearGradient>
<linearGradient id="paint2_linear_679_52683" x1="25.4287" y1="17.704" x2="2.67694" y2="-5.59908" gradientUnits="userSpaceOnUse">
<stop stop-color="#FF3A44"/>
<stop offset="1" stop-color="#C31162"/>
</linearGradient>
<linearGradient id="paint3_linear_679_52683" x1="7.47426" y1="39.8238" x2="17.6339" y2="29.418" gradientUnits="userSpaceOnUse">
<stop stop-color="#32A071"/>
<stop offset="0.0685" stop-color="#2DA771"/>
<stop offset="0.4762" stop-color="#15CF74"/>
<stop offset="0.8009" stop-color="#06E775"/>
<stop offset="1" stop-color="#00F076"/>
</linearGradient>
</defs>
</svg>
