<svg width="17" height="17" viewBox="0 0 17 17" fill="none" xmlns="http://www.w3.org/2000/svg">
<path d="M14.3415 2.64995C12.761 1.07495 10.6537 0.199951 8.42927 0.199951C3.80488 0.199951 0.0585357 3.93328 0.0585357 8.54162C0.0585357 9.99995 0.468293 11.4583 1.17073 12.6833L0 17L4.44878 15.8333C5.67805 16.475 7.02439 16.825 8.42927 16.825C13.0537 16.825 16.8 13.0916 16.8 8.48328C16.7415 6.32495 15.9219 4.22495 14.3415 2.64995ZM12.4683 11.5166C12.2927 11.9833 11.4732 12.45 11.0634 12.5083C10.7122 12.5666 10.2439 12.5666 9.77561 12.45C9.48293 12.3333 9.07317 12.2166 8.60488 11.9833C6.49756 11.1083 5.15122 9.00828 5.03415 8.83328C4.91707 8.71662 4.1561 7.72495 4.1561 6.67495C4.1561 5.62495 4.68293 5.15828 4.85854 4.92495C5.03415 4.69162 5.26829 4.69162 5.4439 4.69162C5.56098 4.69162 5.73658 4.69162 5.85366 4.69162C5.97073 4.69162 6.14634 4.63328 6.32195 5.04162C6.49756 5.44995 6.90732 6.49995 6.96585 6.55828C7.02439 6.67495 7.02439 6.79162 6.96585 6.90828C6.90732 7.02495 6.84878 7.14162 6.7317 7.25828C6.61463 7.37495 6.49756 7.54995 6.43902 7.60828C6.32195 7.72495 6.20488 7.84162 6.32195 8.01662C6.43902 8.24995 6.84878 8.89162 7.49268 9.47495C8.31219 10.1749 8.9561 10.4083 9.19024 10.525C9.42439 10.6416 9.54146 10.5833 9.65853 10.4666C9.77561 10.3499 10.1854 9.88328 10.3024 9.64995C10.4195 9.41662 10.5951 9.47495 10.7707 9.53328C10.9463 9.59162 12 10.1166 12.1756 10.2333C12.4098 10.35 12.5268 10.4083 12.5854 10.4666C12.6439 10.6416 12.6439 11.0499 12.4683 11.5166Z" fill="white"/>
</svg>
