<svg width="342" height="75" viewBox="0 0 342 75" fill="none" xmlns="http://www.w3.org/2000/svg">
<path d="M33.5137 34.3828V12.4629C33.5137 12.0059 33.6777 11.6133 34.0059 11.2852C34.334 10.957 34.7266 10.793 35.1836 10.793H38.4531C38.9336 10.793 39.332 10.957 39.6484 11.2852C39.9766 11.6133 40.1406 12.0059 40.1406 12.4629V34.3477C40.1406 34.8047 39.9707 35.1973 39.6309 35.5254C39.3027 35.8418 38.9102 36 38.4531 36H35.1836C34.7266 36 34.334 35.8477 34.0059 35.543C33.6777 35.2266 33.5137 34.8398 33.5137 34.3828ZM45.1855 12.4629C45.1855 12.0059 45.3496 11.6133 45.6777 11.2852C46.0059 10.957 46.3984 10.793 46.8555 10.793H61.1465C64.6504 10.793 67.2344 11.8008 68.8984 13.8164C69.8242 14.9297 70.2871 16.3535 70.2871 18.0879C70.2871 19.8105 69.4961 21.3164 67.9141 22.6055C70.1641 23.8125 71.2891 25.6875 71.2891 28.2305C71.2891 30.7734 70.3867 32.707 68.582 34.0312C66.7891 35.3438 64.5859 36 61.9727 36H46.8555C46.3984 36 46.0059 35.8418 45.6777 35.5254C45.3496 35.1973 45.1855 34.8047 45.1855 34.3477V12.4629ZM51.8125 31.2539H61.8672C62.7695 31.2539 63.4609 30.9844 63.9414 30.4453C64.4219 29.9062 64.6621 29.168 64.6621 28.2305C64.6621 27.293 64.4219 26.5547 63.9414 26.0156C63.4609 25.4766 62.7695 25.207 61.8672 25.207H51.8125V31.2539ZM51.8125 20.584H61.2168C61.9551 20.584 62.5469 20.3672 62.9922 19.9336C63.4375 19.4883 63.6602 18.873 63.6602 18.0879C63.6602 17.291 63.4375 16.6699 62.9922 16.2246C62.5469 15.7793 61.9551 15.5566 61.2168 15.5566H51.8125V20.584ZM74.8926 34.3125V12.4277C74.8926 11.9707 75.0566 11.584 75.3848 11.2676C75.7129 10.9512 76.1055 10.793 76.5625 10.793H96.8301C97.2871 10.793 97.6738 10.957 97.9902 11.2852C98.3184 11.6133 98.4824 12.0059 98.4824 12.4629V14.1152C98.4824 14.5723 98.3184 14.9648 97.9902 15.293C97.6738 15.6094 97.2871 15.7676 96.8301 15.7676H81.5195V20.8828H94.7031C95.1602 20.8828 95.5469 21.0469 95.8633 21.375C96.1914 21.6914 96.3555 22.0781 96.3555 22.5352V24.1875C96.3555 24.6445 96.1914 25.0371 95.8633 25.3652C95.5469 25.6816 95.1602 25.8398 94.7031 25.8398H81.5195V31.0254H96.7949C97.2402 31.0254 97.6211 31.1836 97.9375 31.5C98.2539 31.8164 98.4121 32.2031 98.4121 32.6602V34.3477C98.4121 34.8047 98.248 35.1973 97.9199 35.5254C97.5918 35.8418 97.1992 36 96.7422 36H76.5625C76.1055 36 75.7129 35.8418 75.3848 35.5254C75.0566 35.1973 74.8926 34.793 74.8926 34.3125ZM103.527 33.0293C101.359 30.9551 100.275 27.75 100.275 23.4141C100.275 19.0664 101.359 15.8555 103.527 13.7812C105.707 11.6953 108.971 10.6523 113.318 10.6523H117.238C119.898 10.6523 122.248 11.3437 124.287 12.7266C126.338 14.1094 127.363 16.002 127.363 18.4043C127.363 19.0957 127.158 19.5938 126.748 19.8984C126.338 20.1914 125.939 20.3379 125.553 20.3379H123.461C122.383 20.3379 121.545 19.6934 120.947 18.4043C120.08 16.5527 118.639 15.627 116.623 15.627H113.494C110.928 15.627 109.188 16.1777 108.273 17.2793C107.359 18.3809 106.902 20.4199 106.902 23.3965C106.902 26.373 107.359 28.418 108.273 29.5312C109.188 30.6328 110.928 31.1836 113.494 31.1836H116.992C119.008 31.1836 120.443 30.2578 121.299 28.4062C121.896 27.1055 122.74 26.4551 123.83 26.4551H125.922C126.473 26.4551 126.906 26.6602 127.223 27.0703C127.551 27.4805 127.715 27.9258 127.715 28.4062C127.715 30.8086 126.695 32.7012 124.656 34.084C122.617 35.4551 120.268 36.1406 117.607 36.1406H113.318C108.971 36.1406 105.707 35.1035 103.527 33.0293ZM142.322 29.5488C142.322 28.8574 142.527 28.3652 142.938 28.0723C143.348 27.7676 143.746 27.6152 144.133 27.6152H146.225C147.279 27.6152 148.082 28.1895 148.633 29.3379C149.184 30.4863 150.42 31.0605 152.342 31.0605L158.494 31.1836C160.557 31.1836 161.588 30.5098 161.588 29.1621C161.588 28.1426 160.328 27.3398 157.809 26.7539C156.684 26.4844 155.441 26.2207 154.082 25.9629C152.723 25.6934 151.369 25.3594 150.021 24.9609C148.686 24.5625 147.455 24.0938 146.33 23.5547C145.205 23.0156 144.291 22.2773 143.588 21.3398C142.896 20.3906 142.551 19.2773 142.551 18C142.551 15.6445 143.389 13.834 145.064 12.5684C146.74 11.291 149.623 10.6523 153.713 10.6523L158.178 10.7578C160.58 10.7578 162.742 11.3789 164.664 12.6211C166.598 13.8516 167.564 15.3926 167.564 17.2441C167.564 17.9355 167.359 18.4336 166.949 18.7383C166.539 19.043 166.146 19.1953 165.771 19.1953H163.68C162.625 19.1953 161.822 18.6211 161.271 17.4727C160.721 16.3125 159.484 15.7324 157.562 15.7324L152.271 15.627C150.209 15.627 149.178 16.3008 149.178 17.6484C149.178 18.3867 149.828 18.9902 151.129 19.459C152.441 19.9277 154.023 20.3438 155.875 20.707C157.738 21.0586 159.607 21.4863 161.482 21.9902C163.357 22.4941 164.945 23.3262 166.246 24.4863C167.559 25.6348 168.215 27.0703 168.215 28.793C168.215 31.1484 167.371 32.9648 165.684 34.2422C164.008 35.5078 161.131 36.1406 157.053 36.1406L151.727 36.0352C149.324 36.0352 147.156 35.4199 145.223 34.1895C143.289 32.9473 142.322 31.4004 142.322 29.5488ZM169.129 11.6367C169.129 11.0742 169.434 10.793 170.043 10.793H173.383C174.707 10.793 175.727 11.3496 176.441 12.4629L182.137 21.2344L187.814 12.4629C188.541 11.3496 189.561 10.793 190.873 10.793H194.23C194.828 10.793 195.127 11.0742 195.127 11.6367C195.127 11.8945 195.033 12.1699 194.846 12.4629L185.441 27V34.3828C185.441 34.8398 185.277 35.2266 184.949 35.543C184.633 35.8477 184.246 36 183.789 36H180.484C180.027 36 179.635 35.8477 179.307 35.543C178.979 35.2266 178.814 34.8398 178.814 34.3828V27L169.428 12.4629C169.229 12.1699 169.129 11.8945 169.129 11.6367ZM196.217 29.5488C196.217 28.8574 196.422 28.3652 196.832 28.0723C197.242 27.7676 197.641 27.6152 198.027 27.6152H200.119C201.174 27.6152 201.977 28.1895 202.527 29.3379C203.078 30.4863 204.314 31.0605 206.236 31.0605L212.389 31.1836C214.451 31.1836 215.482 30.5098 215.482 29.1621C215.482 28.1426 214.223 27.3398 211.703 26.7539C210.578 26.4844 209.336 26.2207 207.977 25.9629C206.617 25.6934 205.264 25.3594 203.916 24.9609C202.58 24.5625 201.35 24.0938 200.225 23.5547C199.1 23.0156 198.186 22.2773 197.482 21.3398C196.791 20.3906 196.445 19.2773 196.445 18C196.445 15.6445 197.283 13.834 198.959 12.5684C200.635 11.291 203.518 10.6523 207.607 10.6523L212.072 10.7578C214.475 10.7578 216.637 11.3789 218.559 12.6211C220.492 13.8516 221.459 15.3926 221.459 17.2441C221.459 17.9355 221.254 18.4336 220.844 18.7383C220.434 19.043 220.041 19.1953 219.666 19.1953H217.574C216.52 19.1953 215.717 18.6211 215.166 17.4727C214.615 16.3125 213.379 15.7324 211.457 15.7324L206.166 15.627C204.104 15.627 203.072 16.3008 203.072 17.6484C203.072 18.3867 203.723 18.9902 205.023 19.459C206.336 19.9277 207.918 20.3438 209.77 20.707C211.633 21.0586 213.502 21.4863 215.377 21.9902C217.252 22.4941 218.84 23.3262 220.141 24.4863C221.453 25.6348 222.109 27.0703 222.109 28.793C222.109 31.1484 221.266 32.9648 219.578 34.2422C217.902 35.5078 215.025 36.1406 210.947 36.1406L205.621 36.0352C203.219 36.0352 201.051 35.4199 199.117 34.1895C197.184 32.9473 196.217 31.4004 196.217 29.5488ZM223.023 14.1152V12.4629C223.023 11.9824 223.182 11.584 223.498 11.2676C223.814 10.9512 224.213 10.793 224.693 10.793H247C247.48 10.793 247.879 10.9512 248.195 11.2676C248.512 11.584 248.67 11.9824 248.67 12.4629V14.1152C248.67 14.5957 248.512 14.9941 248.195 15.3105C247.879 15.6152 247.48 15.7676 247 15.7676H239.16V34.3828C239.16 34.8398 238.996 35.2266 238.668 35.543C238.352 35.8477 237.965 36 237.508 36H234.186C233.729 36 233.336 35.8477 233.008 35.543C232.691 35.2266 232.533 34.8398 232.533 34.3828V15.7676H224.693C224.213 15.7676 223.814 15.6152 223.498 15.3105C223.182 14.9941 223.023 14.5957 223.023 14.1152ZM251.553 34.3125V12.4277C251.553 11.9707 251.717 11.584 252.045 11.2676C252.373 10.9512 252.766 10.793 253.223 10.793H273.49C273.947 10.793 274.334 10.957 274.65 11.2852C274.979 11.6133 275.143 12.0059 275.143 12.4629V14.1152C275.143 14.5723 274.979 14.9648 274.65 15.293C274.334 15.6094 273.947 15.7676 273.49 15.7676H258.18V20.8828H271.363C271.82 20.8828 272.207 21.0469 272.523 21.375C272.852 21.6914 273.016 22.0781 273.016 22.5352V24.1875C273.016 24.6445 272.852 25.0371 272.523 25.3652C272.207 25.6816 271.82 25.8398 271.363 25.8398H258.18V31.0254H273.455C273.9 31.0254 274.281 31.1836 274.598 31.5C274.914 31.8164 275.072 32.2031 275.072 32.6602V34.3477C275.072 34.8047 274.908 35.1973 274.58 35.5254C274.252 35.8418 273.859 36 273.402 36H253.223C252.766 36 252.373 35.8418 252.045 35.5254C251.717 35.1973 251.553 34.793 251.553 34.3125ZM278.377 34.3125V12.498C278.377 12.0176 278.535 11.6133 278.852 11.2852C279.168 10.957 279.555 10.793 280.012 10.793H287.166C287.623 10.793 288.057 10.957 288.467 11.2852C288.877 11.6133 289.152 12.0059 289.293 12.4629L294.479 27.4746L299.664 12.4629C299.805 12.0059 300.08 11.6133 300.49 11.2852C300.9 10.957 301.334 10.793 301.791 10.793H308.945C309.402 10.793 309.783 10.957 310.088 11.2852C310.404 11.6133 310.562 12.0176 310.562 12.498V34.3125C310.562 34.793 310.398 35.1973 310.07 35.5254C309.754 35.8418 309.367 36 308.91 36H305.746C305.289 36 304.896 35.8418 304.568 35.5254C304.252 35.1973 304.094 34.793 304.094 34.3125V17.1387L297.889 34.418C297.725 34.8516 297.438 35.2266 297.027 35.543C296.617 35.8477 296.184 36 295.727 36H293.213C292.756 36 292.322 35.8477 291.912 35.543C291.514 35.2266 291.227 34.8516 291.051 34.418L284.863 17.1387V34.3125C284.863 34.793 284.699 35.1973 284.371 35.5254C284.055 35.8418 283.668 36 283.211 36H280.047C279.59 36 279.197 35.8418 278.869 35.5254C278.541 35.1973 278.377 34.793 278.377 34.3125ZM314.166 29.5488C314.166 28.8574 314.371 28.3652 314.781 28.0723C315.191 27.7676 315.59 27.6152 315.977 27.6152H318.068C319.123 27.6152 319.926 28.1895 320.477 29.3379C321.027 30.4863 322.264 31.0605 324.186 31.0605L330.338 31.1836C332.4 31.1836 333.432 30.5098 333.432 29.1621C333.432 28.1426 332.172 27.3398 329.652 26.7539C328.527 26.4844 327.285 26.2207 325.926 25.9629C324.566 25.6934 323.213 25.3594 321.865 24.9609C320.529 24.5625 319.299 24.0938 318.174 23.5547C317.049 23.0156 316.135 22.2773 315.432 21.3398C314.74 20.3906 314.395 19.2773 314.395 18C314.395 15.6445 315.232 13.834 316.908 12.5684C318.584 11.291 321.467 10.6523 325.557 10.6523L330.021 10.7578C332.424 10.7578 334.586 11.3789 336.508 12.6211C338.441 13.8516 339.408 15.3926 339.408 17.2441C339.408 17.9355 339.203 18.4336 338.793 18.7383C338.383 19.043 337.99 19.1953 337.615 19.1953H335.523C334.469 19.1953 333.666 18.6211 333.115 17.4727C332.564 16.3125 331.328 15.7324 329.406 15.7324L324.115 15.627C322.053 15.627 321.021 16.3008 321.021 17.6484C321.021 18.3867 321.672 18.9902 322.973 19.459C324.285 19.9277 325.867 20.3438 327.719 20.707C329.582 21.0586 331.451 21.4863 333.326 21.9902C335.201 22.4941 336.789 23.3262 338.09 24.4863C339.402 25.6348 340.059 27.0703 340.059 28.793C340.059 31.1484 339.215 32.9648 337.527 34.2422C335.852 35.5078 332.975 36.1406 328.896 36.1406L323.57 36.0352C321.168 36.0352 319 35.4199 317.066 34.1895C315.133 32.9473 314.166 31.4004 314.166 29.5488Z" fill="black"/>
<path d="M32.1172 65.2656V55.5391C32.1172 55.3359 32.1901 55.1615 32.3359 55.0156C32.4818 54.8698 32.6615 54.7969 32.875 54.7969H34.3281C34.5312 54.7969 34.7031 54.8698 34.8438 55.0156C34.9896 55.1615 35.0625 55.3359 35.0625 55.5391V59.0547H40.4375V55.5391C40.4375 55.3359 40.5104 55.1615 40.6562 55.0156C40.8021 54.8698 40.9766 54.7969 41.1797 54.7969H42.6328C42.8464 54.7969 43.0234 54.8698 43.1641 55.0156C43.3099 55.1615 43.3828 55.3359 43.3828 55.5391V65.2656C43.3828 65.4688 43.3073 65.6432 43.1562 65.7891C43.0104 65.9297 42.8359 66 42.6328 66H41.1797C40.9766 66 40.8021 65.9323 40.6562 65.7969C40.5104 65.6562 40.4375 65.4844 40.4375 65.2812V61.2656H35.0625V65.2812C35.0625 65.4844 34.9896 65.6562 34.8438 65.7969C34.7031 65.9323 34.5312 66 34.3281 66H32.875C32.6719 66 32.4948 65.9297 32.3438 65.7891C32.1927 65.6432 32.1172 65.4688 32.1172 65.2656ZM45.6328 65.25V55.5234C45.6328 55.3203 45.7057 55.1484 45.8516 55.0078C45.9974 54.8672 46.1719 54.7969 46.375 54.7969H55.3828C55.5859 54.7969 55.7578 54.8698 55.8984 55.0156C56.0443 55.1615 56.1172 55.3359 56.1172 55.5391V56.2734C56.1172 56.4766 56.0443 56.651 55.8984 56.7969C55.7578 56.9375 55.5859 57.0078 55.3828 57.0078H48.5781V59.2812H54.4375C54.6406 59.2812 54.8125 59.3542 54.9531 59.5C55.099 59.6406 55.1719 59.8125 55.1719 60.0156V60.75C55.1719 60.9531 55.099 61.1276 54.9531 61.2734C54.8125 61.4141 54.6406 61.4844 54.4375 61.4844H48.5781V63.7891H55.3672C55.5651 63.7891 55.7344 63.8594 55.875 64C56.0156 64.1406 56.0859 64.3125 56.0859 64.5156V65.2656C56.0859 65.4688 56.013 65.6432 55.8672 65.7891C55.7214 65.9297 55.5469 66 55.3438 66H46.375C46.1719 66 45.9974 65.9297 45.8516 65.7891C45.7057 65.6432 45.6328 65.4635 45.6328 65.25ZM56.6328 65.2812L58.5938 57.8438C59.125 55.8177 60.8542 54.8021 63.7812 54.7969H67.9922C68.1849 54.7969 68.3438 54.8698 68.4688 55.0156C68.599 55.1615 68.6641 55.3307 68.6641 55.5234V65.2812C68.6641 65.4844 68.5911 65.6562 68.4453 65.7969C68.2995 65.9323 68.125 66 67.9219 66H66.4531C66.2396 66 66.0625 65.9323 65.9219 65.7969C65.7865 65.6562 65.7188 65.4792 65.7188 65.2656V63.2969H60.1641L59.6406 65.2656C59.5885 65.4792 59.4714 65.6562 59.2891 65.7969C59.1068 65.9323 58.9141 66 58.7109 66H57.1719C56.9688 66 56.8229 65.9427 56.7344 65.8281C56.6458 65.7083 56.6016 65.6042 56.6016 65.5156C56.6068 65.4271 56.6172 65.349 56.6328 65.2812ZM60.7422 61.0859H65.7188V57.0078H63.4922C62.9922 57.0078 62.5547 57.151 62.1797 57.4375C61.8099 57.7188 61.5599 58.099 61.4297 58.5781L60.7422 61.0859ZM70.8984 65.2812V55.5547C70.8984 55.3411 70.9714 55.1615 71.1172 55.0156C71.263 54.8698 71.4375 54.7969 71.6406 54.7969H76.0078C78.2682 54.7969 79.9115 55.25 80.9375 56.1562C81.9688 57.0573 82.4844 58.474 82.4844 60.4062C82.4844 62.3333 81.9688 63.7474 80.9375 64.6484C79.9115 65.5495 78.2682 66 76.0078 66H71.6406C71.4375 66 71.263 65.9323 71.1172 65.7969C70.9714 65.6562 70.8984 65.4844 70.8984 65.2812ZM73.8438 63.7891H75.9219C77.3229 63.7891 78.276 63.5339 78.7812 63.0234C79.2865 62.513 79.5391 61.6406 79.5391 60.4062C79.5391 59.1667 79.2865 58.2917 78.7812 57.7812C78.276 57.2656 77.3229 57.0078 75.9219 57.0078H73.8438V63.7891ZM84.0859 65.25V55.5234C84.0859 55.3203 84.1589 55.1484 84.3047 55.0078C84.4505 54.8672 84.625 54.7969 84.8281 54.7969H93.8359C94.0391 54.7969 94.2109 54.8698 94.3516 55.0156C94.4974 55.1615 94.5703 55.3359 94.5703 55.5391V56.2734C94.5703 56.4766 94.4974 56.651 94.3516 56.7969C94.2109 56.9375 94.0391 57.0078 93.8359 57.0078H87.0312V59.2812H92.8906C93.0938 59.2812 93.2656 59.3542 93.4062 59.5C93.5521 59.6406 93.625 59.8125 93.625 60.0156V60.75C93.625 60.9531 93.5521 61.1276 93.4062 61.2734C93.2656 61.4141 93.0938 61.4844 92.8906 61.4844H87.0312V63.7891H93.8203C94.0182 63.7891 94.1875 63.8594 94.3281 64C94.4688 64.1406 94.5391 64.3125 94.5391 64.5156V65.2656C94.5391 65.4688 94.4661 65.6432 94.3203 65.7891C94.1745 65.9297 94 66 93.7969 66H84.8281C84.625 66 84.4505 65.9297 84.3047 65.7891C84.1589 65.6432 84.0859 65.4635 84.0859 65.25ZM107.641 65.6641C107.641 65.888 107.508 66 107.242 66H105.367C105.169 66 104.951 65.9297 104.711 65.7891C104.477 65.6432 104.297 65.4688 104.172 65.2656L102.844 63.1875C102.297 62.3333 101.635 61.9062 100.859 61.9062H98.9531V65.2656C98.9531 65.4688 98.8802 65.6432 98.7344 65.7891C98.5938 65.9297 98.4219 66 98.2188 66H96.75C96.5469 66 96.3724 65.9297 96.2266 65.7891C96.0807 65.6432 96.0078 65.4688 96.0078 65.2656V55.5391C96.0078 55.3359 96.0781 55.1615 96.2188 55.0156C96.3594 54.8698 96.5312 54.7969 96.7344 54.7969H103.18C104.372 54.7969 105.349 55.1172 106.109 55.7578C106.875 56.3984 107.258 57.263 107.258 58.3516C107.258 59.8672 106.276 60.8177 104.312 61.2031C104.625 61.3177 104.914 61.5156 105.18 61.7969C105.445 62.0729 105.75 62.4766 106.094 63.0078L107.516 65.2656C107.599 65.4115 107.641 65.5443 107.641 65.6641ZM98.9531 59.6953H102.281C102.818 59.6953 103.289 59.5885 103.695 59.375C104.107 59.1615 104.312 58.8203 104.312 58.3516C104.312 57.8828 104.107 57.5417 103.695 57.3281C103.289 57.1146 102.818 57.0078 102.281 57.0078H98.9531V59.6953Z" fill="black"/>
<path fill-rule="evenodd" clip-rule="evenodd" d="M14.2148 14.3391L11.4997 6L8.78523 14.3391H0L7.1071 19.4928L4.39262 27.8318L11.4997 22.6781L18.6074 27.8318L15.8923 19.4928L23 14.3391H14.2148ZM16.2823 66H6.7178L8.02219 30.1364H14.9774L16.2823 66Z" fill="#FC1A94"/>
</svg>
